<svg width="375" height="369" viewBox="0 0 375 369" fill="none" xmlns="http://www.w3.org/2000/svg">
<g opacity="0.3">
<mask id="mask0_7348_41566" style="mask-type:alpha" maskUnits="userSpaceOnUse" x="-230" y="-20" width="835" height="389">
<path d="M-229.805 -4.00001C-229.805 -12.8366 -222.641 -20 -213.805 -20H588.114C596.951 -20 604.114 -12.8366 604.114 -4V369H-229.805V-4.00001Z" fill="white"/>
</mask>
<g mask="url(#mask0_7348_41566)">
<g opacity="0.3" filter="url(#filter0_f_7348_41566)">
<path d="M181.339 -32.2969L214.264 501.484H148.414L181.339 -32.2969Z" fill="url(#paint0_linear_7348_41566)"/>
<path d="M198.402 -37.6157L-39.9747 441.114L-97.0025 408.189L198.402 -37.6157Z" fill="url(#paint1_linear_7348_41566)"/>
<path d="M166.286 -37.6157L404.662 441.114L461.69 408.189L166.286 -37.6157Z" fill="url(#paint2_linear_7348_41566)"/>
<path d="M123.514 -41.075L569.319 254.329L602.244 197.301L123.514 -41.075Z" fill="url(#paint3_linear_7348_41566)"/>
<path d="M238.736 -41.075L-207.069 254.329L-239.994 197.301L238.736 -41.075Z" fill="url(#paint4_linear_7348_41566)"/>
</g>
</g>
</g>
<defs>
<filter id="filter0_f_7348_41566" x="-251.992" y="-53.0752" width="866.234" height="566.559" filterUnits="userSpaceOnUse" color-interpolation-filters="sRGB">
<feFlood flood-opacity="0" result="BackgroundImageFix"/>
<feBlend mode="normal" in="SourceGraphic" in2="BackgroundImageFix" result="shape"/>
<feGaussianBlur stdDeviation="6" result="effect1_foregroundBlur_7348_41566"/>
</filter>
<linearGradient id="paint0_linear_7348_41566" x1="181.339" y1="-32.2969" x2="181.339" y2="679.41" gradientUnits="userSpaceOnUse">
<stop stop-color="white"/>
<stop offset="0.609955" stop-color="white" stop-opacity="0"/>
</linearGradient>
<linearGradient id="paint1_linear_7348_41566" x1="198.402" y1="-37.6157" x2="-96.5" y2="257.286" gradientUnits="userSpaceOnUse">
<stop stop-color="white"/>
<stop offset="1" stop-color="white" stop-opacity="0"/>
</linearGradient>
<linearGradient id="paint2_linear_7348_41566" x1="166.286" y1="-37.6157" x2="467" y2="263.098" gradientUnits="userSpaceOnUse">
<stop stop-color="white"/>
<stop offset="1" stop-color="white" stop-opacity="0"/>
</linearGradient>
<linearGradient id="paint3_linear_7348_41566" x1="123.514" y1="-41.075" x2="739.871" y2="314.779" gradientUnits="userSpaceOnUse">
<stop stop-color="white"/>
<stop offset="0.493525" stop-color="white" stop-opacity="0"/>
</linearGradient>
<linearGradient id="paint4_linear_7348_41566" x1="238.736" y1="-41.075" x2="-377.621" y2="314.779" gradientUnits="userSpaceOnUse">
<stop stop-color="white"/>
<stop offset="0.516125" stop-color="white" stop-opacity="0"/>
</linearGradient>
</defs>
</svg>
