<svg width="20" height="20" viewBox="0 0 20 20" fill="none" xmlns="http://www.w3.org/2000/svg">
<path d="M16.875 9.16667V9.79167C16.875 10.7122 16.1288 11.4583 15.2083 11.4583H13.125C12.2045 11.4583 11.4583 12.2045 11.4583 13.125V15.2083C11.4583 16.1288 10.7122 16.875 9.79167 16.875H9.16667M4.79167 3.125H15.2083C16.1288 3.125 16.875 3.87119 16.875 4.79167V11.4581C16.875 11.9001 16.6994 12.324 16.3868 12.6366L12.6366 16.3868C12.324 16.6994 11.9001 16.875 11.4581 16.875H4.79167C3.87119 16.875 3.125 16.1288 3.125 15.2083V4.79167C3.125 3.87119 3.87119 3.125 4.79167 3.125Z" stroke="#FF9500" stroke-width="1.25" stroke-linejoin="round"/>
</svg>
