<svg width="24" height="24" viewBox="0 0 24 24" fill="none" xmlns="http://www.w3.org/2000/svg">
<path d="M22 10.75H2C1.59 10.75 1.25 10.41 1.25 10C1.25 9.59 1.59 9.25 2 9.25H22C22.41 9.25 22.75 9.59 22.75 10C22.75 10.41 22.41 10.75 22 10.75Z" fill="#121212"/>
<path d="M11.5502 21.2517H6.44025C2.46025 21.2517 1.24023 20.0517 1.24023 16.1117V7.89172C1.24023 4.74172 1.91022 2.99172 5.48022 2.78172C5.78022 2.77172 6.10025 2.76172 6.44025 2.76172H17.5502C21.5302 2.76172 22.7502 3.96172 22.7502 7.90172V12.3117C22.7502 12.7217 22.4102 13.0617 22.0002 13.0617C21.5902 13.0617 21.2502 12.7217 21.2502 12.3117V7.90172C21.2502 4.81172 20.7002 4.26172 17.5502 4.26172H6.44025C6.12025 4.26172 5.83023 4.27172 5.55023 4.28172C3.38023 4.41172 2.74023 4.90172 2.74023 7.90172V16.1217C2.74023 19.2117 3.29025 19.7617 6.44025 19.7617H11.5502C11.9602 19.7617 12.3002 20.1017 12.3002 20.5117C12.3002 20.9217 11.9702 21.2517 11.5502 21.2517Z" fill="#121212"/>
<path d="M10 16.75H6C5.59 16.75 5.25 16.41 5.25 16C5.25 15.59 5.59 15.25 6 15.25H10C10.41 15.25 10.75 15.59 10.75 16C10.75 16.41 10.41 16.75 10 16.75Z" fill="#121212"/>
<path d="M18 22.75C16.34 22.75 14.78 21.87 13.94 20.44C13.49 19.72 13.25 18.87 13.25 18C13.25 15.38 15.38 13.25 18 13.25C20.62 13.25 22.75 15.38 22.75 18C22.75 18.87 22.51 19.72 22.06 20.45C21.22 21.87 19.66 22.75 18 22.75ZM18 14.75C16.21 14.75 14.75 16.21 14.75 18C14.75 18.59 14.91 19.17 15.22 19.67C15.8 20.65 16.87 21.25 18 21.25C19.13 21.25 20.2 20.65 20.78 19.68C21.09 19.17 21.25 18.6 21.25 18C21.25 16.21 19.79 14.75 18 14.75Z" fill="#121212"/>
<path d="M17.4299 19.7415C17.2399 19.7415 17.0499 19.6715 16.8999 19.5215L15.9099 18.5315C15.6199 18.2415 15.6199 17.7615 15.9099 17.4715C16.1999 17.1815 16.6799 17.1815 16.9699 17.4715L17.4499 17.9515L19.0499 16.4715C19.3499 16.1915 19.8299 16.2115 20.1099 16.5115C20.3899 16.8115 20.3699 17.2915 20.0699 17.5715L17.9399 19.5415C17.7899 19.6715 17.6099 19.7415 17.4299 19.7415Z" fill="#121212"/>
</svg>
